<svg width="144" height="144" viewBox="0 0 144 144" fill="none" xmlns="http://www.w3.org/2000/svg">
<circle cx="72" cy="72" r="72" fill="white"/>
<path d="M69.4439 0C52.8119 0.587643 36.3468 6.91502 23.2465 18.9815L56.7663 52.5012C67.2471 40.5624 72.0404 22.7888 69.4439 0ZM75.5167 0.0358477C78.0783 23.8917 72.9057 43.4424 61.0356 56.7715L72.0002 67.7351L120.754 18.9815C107.905 7.14686 91.8213 0.829869 75.5167 0.0358477ZM18.9815 23.2464C6.9147 36.3468 0.587644 52.8118 0 69.4437C22.7888 72.0402 40.5622 67.2469 52.5017 56.7662L18.9815 23.2464ZM125.019 23.2464L76.2651 72L87.224 82.9588C98.553 72.8704 114.378 67.6212 133.52 67.8456C136.899 67.8852 140.384 68.0979 143.964 68.4822C143.17 52.1779 136.853 36.0941 125.018 23.2464H125.019ZM56.7713 61.0351C43.4421 72.9053 23.8914 78.0781 0.0358478 75.5161C0.829871 91.8207 7.14721 107.905 18.9818 120.754L67.7352 72L56.7713 61.0351ZM132.154 73.8567C114.984 73.8708 101.283 78.6443 91.4986 87.2338L125.018 120.754C137.085 107.653 143.412 91.1882 144 74.5563C139.887 74.0872 135.934 73.8541 132.153 73.8571L132.154 73.8567ZM72.0002 76.2649L23.2465 125.019C36.0949 136.853 52.1791 143.17 68.4837 143.964C65.922 120.109 71.0946 100.558 82.9647 87.2288L72.0002 76.2649ZM87.234 91.4988C76.7533 103.438 71.96 121.211 74.5565 144C91.1884 143.412 107.653 137.085 120.754 125.019L87.234 91.4988Z" fill="#FF6700"/>
</svg>
